<?xml version="1.0" standalone="no"?>
<!DOCTYPE svg PUBLIC "-//W3C//DTD SVG 20010904//EN"
 "http://www.w3.org/TR/2001/REC-SVG-20010904/DTD/svg10.dtd">
<svg version="1.0" xmlns="http://www.w3.org/2000/svg"
 width="1563.000000pt" height="1563.000000pt" viewBox="0 0 1563.000000 1563.000000"
 preserveAspectRatio="xMidYMid meet">
<metadata>
Created by potrace 1.14, written by Peter Selinger 2001-2017
</metadata>
<g transform="translate(0.000000,1563.000000) scale(0.100000,-0.100000)"
fill="#000000" stroke="none">
<path d="M2500 14798 c-33 -17 -51 -35 -67 -68 -23 -44 -23 -50 -23 -421 l0
-378 -298 -3 -297 -3 -67 -33 c-70 -34 -123 -86 -155 -151 -28 -57 -31 -215
-5 -274 29 -64 95 -132 161 -164 l56 -28 303 -3 302 -3 0 -394 0 -394 -302 -3
c-344 -3 -352 -5 -444 -90 -70 -64 -94 -123 -94 -232 0 -80 3 -94 32 -147 37
-71 82 -112 158 -148 55 -26 56 -26 353 -29 l297 -4 0 -388 0 -388 -297 -4
-298 -3 -62 -29 c-65 -30 -127 -87 -159 -147 -13 -24 -19 -64 -22 -136 -4 -91
-2 -107 20 -155 30 -64 93 -129 156 -160 46 -22 56 -23 355 -26 l307 -3 0
-387 0 -387 -261 3 c-277 3 -343 -4 -416 -40 -59 -29 -127 -106 -147 -165 -23
-68 -21 -225 3 -280 27 -58 96 -130 156 -161 l50 -27 308 -3 307 -3 0 -374 0
-373 -297 -4 -298 -3 -63 -29 c-75 -35 -143 -105 -166 -173 -11 -31 -16 -82
-16 -150 0 -91 3 -111 25 -158 30 -62 97 -128 163 -158 44 -21 64 -22 350 -25
l302 -3 0 -370 0 -369 -303 0 -304 0 -61 -31 c-73 -36 -134 -101 -156 -166
-22 -63 -22 -243 0 -306 22 -64 92 -140 162 -174 l57 -28 303 -3 302 -3 0
-357 0 -357 -298 0 -297 0 -67 -33 c-70 -34 -122 -85 -155 -151 -14 -28 -19
-66 -21 -170 -4 -132 -3 -134 27 -196 36 -73 82 -117 161 -154 55 -26 56 -26
353 -29 l297 -3 0 -344 0 -343 -298 -4 -297 -3 -67 -33 c-70 -34 -122 -85
-155 -151 -26 -52 -32 -295 -8 -357 36 -93 118 -171 208 -195 22 -6 158 -10
328 -9 l289 0 0 -339 0 -339 -298 -4 -297 -3 -67 -33 c-70 -34 -122 -85 -155
-151 -15 -29 -19 -66 -21 -191 l-3 -156 33 -64 c23 -45 48 -76 83 -102 86 -65
103 -68 432 -68 l293 0 0 -374 c0 -240 4 -385 11 -403 19 -50 68 -91 123 -103
37 -8 1546 -10 5321 -8 l5270 3 65 23 c167 61 280 171 336 331 l24 66 0 6576
c0 6533 0 6577 -20 6641 -53 171 -204 311 -382 353 -55 13 -723 15 -5338 15
l-5276 0 -44 -22z m10629 -328 c48 -24 87 -70 101 -118 8 -26 10 -1955 8
-6558 l-3 -6520 -25 -37 c-14 -21 -43 -50 -64 -65 l-39 -27 -5184 -3 -5183 -2
2 277 3 278 133 3 133 3 57 -35 c98 -61 163 -79 287 -80 132 -1 217 21 313 83
299 194 352 602 113 862 -225 245 -607 245 -832 0 -33 -35 -73 -93 -91 -128
l-31 -63 -43 0 -44 0 2 402 3 403 118 3 119 3 71 -46 c101 -65 188 -89 312
-90 76 0 117 5 170 22 394 124 526 619 246 924 -224 245 -607 245 -831 1 -32
-34 -71 -87 -86 -117 -29 -55 -29 -55 -76 -55 l-48 0 0 400 0 400 120 0 120 0
47 -37 c268 -205 680 -114 837 186 118 225 79 487 -98 666 -187 189 -464 224
-695 88 -71 -43 -166 -140 -202 -208 -24 -45 -24 -45 -76 -45 l-53 0 0 400 0
400 109 0 109 0 48 -40 c182 -152 463 -169 660 -42 166 108 264 283 264 474 0
101 -14 167 -56 256 -64 134 -195 246 -344 293 -91 29 -240 29 -330 0 -130
-41 -248 -132 -317 -244 l-36 -58 -51 3 -51 3 -3 403 -2 402 99 0 100 0 58
-51 c264 -231 670 -163 856 143 51 85 69 146 74 259 14 265 -146 492 -402 571
-231 72 -504 -29 -637 -235 l-31 -48 -56 3 -56 3 0 400 0 400 88 3 89 3 63
-60 c140 -131 332 -179 519 -131 109 27 169 63 257 150 116 114 169 241 169
400 0 157 -54 285 -165 397 -84 84 -176 134 -295 159 -208 44 -446 -53 -571
-233 l-30 -43 -65 0 -64 0 2 403 3 402 78 3 79 3 73 -70 c302 -287 785 -170
926 225 27 74 37 230 19 305 -23 102 -77 198 -154 275 -114 114 -241 167 -401
168 -166 0 -287 -53 -412 -180 l-82 -84 -66 0 -65 0 0 400 0 400 78 0 78 0 74
-73 c148 -145 338 -197 534 -147 109 27 169 63 257 150 118 116 169 241 169
408 0 150 -54 278 -164 388 -179 179 -422 220 -654 109 -55 -26 -94 -55 -149
-110 l-75 -75 -74 0 -74 0 0 400 0 400 69 0 70 0 83 -83 c94 -94 171 -138 286
-162 193 -41 369 12 513 155 118 116 169 241 169 408 0 153 -54 278 -169 392
-224 223 -557 225 -790 5 l-68 -65 -82 0 -81 0 0 280 0 280 5175 0 c5117 0
5176 0 5214 -20z m-9549 -9353 c0 -5 -18 10 -40 34 -21 24 -39 49 -39 54 0 6
18 -10 39 -34 22 -24 40 -48 40 -54z m-9 -1414 c12 -18 19 -38 17 -44 -4 -12
-88 97 -88 114 0 15 48 -32 71 -70z m9 -1448 c29 -59 27 -91 -3 -45 -39 60
-76 125 -76 134 -2 20 60 -50 79 -89z"/>
<path d="M6380 11516 c-83 -30 -526 -278 -550 -307 -14 -17 -45 -50 -70 -72
-121 -111 -350 -349 -390 -406 -25 -35 -80 -110 -122 -167 -263 -354 -377
-747 -323 -1107 21 -140 31 -170 200 -597 393 -990 668 -1533 1203 -2375 397
-624 776 -1123 1241 -1635 186 -204 1149 -1155 1241 -1226 222 -169 479 -253
795 -260 161 -3 227 2 385 30 47 8 115 17 152 19 l68 5 177 -164 c98 -90 193
-171 212 -180 43 -21 121 -20 167 2 51 24 271 267 284 313 23 84 4 141 -77
222 l-55 57 143 108 c308 235 323 248 347 294 25 51 28 106 8 155 -12 27 -600
806 -1407 1860 -118 154 -141 179 -182 194 -41 16 -123 13 -159 -5 -50 -26
-450 -333 -490 -376 -21 -22 -38 -47 -38 -54 0 -20 -146 -177 -178 -191 -98
-44 -334 107 -703 449 -198 184 -456 481 -694 799 -486 649 -738 1188 -738
1579 0 156 5 165 128 208 55 19 129 37 165 41 59 5 88 18 325 145 143 76 275
153 294 171 42 41 63 115 50 173 -5 22 -39 96 -75 164 -37 67 -303 562 -591
1098 -354 660 -533 983 -554 1001 -52 46 -124 59 -189 35z m106 -542 c503
-934 934 -1736 934 -1739 0 -2 -63 -38 -140 -79 -113 -62 -148 -76 -183 -76
-29 0 -70 -12 -118 -34 -41 -19 -123 -49 -183 -68 -98 -29 -115 -38 -157 -80
-104 -104 -144 -242 -136 -468 10 -258 97 -552 261 -877 205 -410 584 -944
1007 -1419 238 -267 599 -581 807 -703 273 -159 502 -147 672 36 35 38 88 89
119 116 31 26 68 68 82 95 19 35 56 70 145 139 65 51 124 92 129 92 9 0 1315
-1709 1318 -1725 1 -5 -55 -52 -124 -105 -101 -77 -134 -97 -169 -102 -24 -3
-64 -20 -94 -40 -28 -19 -76 -50 -107 -70 -64 -40 -91 -85 -91 -152 0 -52 11
-73 66 -134 22 -25 -9 0 -71 56 -61 56 -124 105 -139 109 -37 9 -302 -14 -394
-34 -56 -13 -125 -17 -275 -17 -177 0 -210 3 -290 23 -126 33 -275 106 -365
180 -93 75 -992 968 -1162 1153 -490 534 -876 1049 -1325 1769 -327 524 -569
975 -800 1495 -136 304 -429 1052 -447 1138 -43 208 -4 452 110 684 74 151
272 421 419 572 l111 114 45 -11 c113 -29 218 63 207 181 -3 31 0 33 112 94
63 34 120 61 125 59 6 -1 51 -79 101 -172z m4139 -7484 c27 -27 47 -50 44 -50
-3 0 -27 23 -54 50 -27 28 -47 50 -44 50 3 0 27 -22 54 -50z"/>
</g>
</svg>
